<svg width="20" height="22" viewBox="0 0 20 22" fill="none" xmlns="http://www.w3.org/2000/svg">
<path d="M18 8L16.005 19.346C15.9236 19.8094 15.6815 20.2292 15.3212 20.5317C14.9609 20.8342 14.5055 21 14.035 21H5.965C5.49454 21 5.03913 20.8342 4.67882 20.5317C4.31852 20.2292 4.07639 19.8094 3.995 19.346L2 8" fill="black"/>
<path d="M19 5H13.375M13.375 5V3C13.375 2.46957 13.1643 1.96086 12.7892 1.58579C12.4141 1.21071 11.9054 1 11.375 1H8.625C8.09457 1 7.58586 1.21071 7.21079 1.58579C6.83571 1.96086 6.625 2.46957 6.625 3V5M13.375 5H6.625M1 5H6.625M18 8L16.005 19.346C15.9236 19.8094 15.6815 20.2292 15.3212 20.5317C14.9609 20.8342 14.5055 21 14.035 21H5.965C5.49454 21 5.03913 20.8342 4.67882 20.5317C4.31852 20.2292 4.07639 19.8094 3.995 19.346L2 8H18Z" stroke="black" stroke-width="1.5" stroke-linecap="round" stroke-linejoin="round"/>
</svg>
