<svg width="14" height="14" viewBox="0 0 14 14" fill="none" xmlns="http://www.w3.org/2000/svg">
<path fill-rule="evenodd" clip-rule="evenodd" d="M10.423 0C11.3717 0 12.2815 0.376861 12.9523 1.04768C13.6231 1.7185 14 2.62832 14 3.577C14 3.847 13.892 4.107 13.7 4.299L13.172 4.828L11.201 6.799L6.142 11.858C5.72314 12.2767 5.18973 12.562 4.609 12.678L1.971 13.206C1.80952 13.2384 1.64254 13.2303 1.48491 13.1826C1.32727 13.1349 1.18385 13.0491 1.0674 12.9326C0.950942 12.8161 0.865052 12.6727 0.817357 12.5151C0.769662 12.3575 0.761639 12.1905 0.794 12.029L1.322 9.391C1.43803 8.81027 1.72335 8.27686 2.142 7.858L7.201 2.799L9.701 0.299C9.892 0.108 10.152 0 10.423 0ZM8.113 4.009L3.203 8.919C2.99376 9.1283 2.85111 9.39481 2.793 9.685L2.413 11.588L4.315 11.208C4.60555 11.1501 4.87243 11.0074 5.082 10.798L9.992 5.888C9.94793 5.40425 9.7357 4.95125 9.39223 4.60777C9.04875 4.2643 8.59575 4.05207 8.112 4.008L8.113 4.009ZM11.211 4.667C10.8483 3.82357 10.1762 3.15115 9.333 2.788L10.613 1.508C11.608 1.598 12.401 2.392 12.491 3.388L11.211 4.668V4.667Z" fill="black"/>
</svg>
